<COLLADA xmlns="http://www.collada.org/2005/11/COLLADASchema" version="1.4.1">
  <asset>
    <contributor/>
    <created>2025-09-21T04:25:47.225086</created>
    <modified>2025-09-21T04:25:47.226102</modified>
    <unit name="meter" meter="1.0"/>
    <up_axis>Z_UP</up_axis>
  </asset>
  <library_effects>
    <effect id="effect_Part__Feature" name="effect_Part__Feature">
      <profile_COMMON>
        <technique sid="common">
          <phong>
            <emission>
              <color>0.0 0.0 0.0 1.0</color>
            </emission>
            <ambient>
              <color>0.0 0.0 0.0 1.0</color>
            </ambient>
            <diffuse>
              <color>0.6274510025978088 0.6274510025978088 0.6274510025978088 1.0</color>
            </diffuse>
            <specular>
              <color>1 1 1 1.0</color>
            </specular>
            <shininess>
              <float>0.0</float>
            </shininess>
            <reflective>
              <color>0.0 0.0 0.0 1.0</color>
            </reflective>
            <reflectivity>
              <float>0.0</float>
            </reflectivity>
            <transparent>
              <color>0.0 0.0 0.0 1.0</color>
            </transparent>
            <transparency>
              <float>1.0</float>
            </transparency>
          </phong>
        </technique>
        <extra>
          <technique profile="GOOGLEEARTH">
            <double_sided>0</double_sided>
          </technique>
        </extra>
      </profile_COMMON>
    </effect>
    <effect id="effect_Part__Feature001" name="effect_Part__Feature001">
      <profile_COMMON>
        <technique sid="common">
          <phong>
            <emission>
              <color>0.0 0.0 0.0 1.0</color>
            </emission>
            <ambient>
              <color>0.0 0.0 0.0 1.0</color>
            </ambient>
            <diffuse>
              <color>0.6274510025978088 0.6274510025978088 0.6274510025978088 1.0</color>
            </diffuse>
            <specular>
              <color>1 1 1 1.0</color>
            </specular>
            <shininess>
              <float>0.0</float>
            </shininess>
            <reflective>
              <color>0.0 0.0 0.0 1.0</color>
            </reflective>
            <reflectivity>
              <float>0.0</float>
            </reflectivity>
            <transparent>
              <color>0.0 0.0 0.0 1.0</color>
            </transparent>
            <transparency>
              <float>1.0</float>
            </transparency>
          </phong>
        </technique>
        <extra>
          <technique profile="GOOGLEEARTH">
            <double_sided>0</double_sided>
          </technique>
        </extra>
      </profile_COMMON>
    </effect>
    <effect id="effect_Part__Feature002" name="effect_Part__Feature002">
      <profile_COMMON>
        <technique sid="common">
          <phong>
            <emission>
              <color>0.0 0.0 0.0 1.0</color>
            </emission>
            <ambient>
              <color>0.0 0.0 0.0 1.0</color>
            </ambient>
            <diffuse>
              <color>0.6274510025978088 0.6274510025978088 0.6274510025978088 1.0</color>
            </diffuse>
            <specular>
              <color>1 1 1 1.0</color>
            </specular>
            <shininess>
              <float>0.0</float>
            </shininess>
            <reflective>
              <color>0.0 0.0 0.0 1.0</color>
            </reflective>
            <reflectivity>
              <float>0.0</float>
            </reflectivity>
            <transparent>
              <color>0.0 0.0 0.0 1.0</color>
            </transparent>
            <transparency>
              <float>1.0</float>
            </transparency>
          </phong>
        </technique>
        <extra>
          <technique profile="GOOGLEEARTH">
            <double_sided>0</double_sided>
          </technique>
        </extra>
      </profile_COMMON>
    </effect>
    <effect id="effect_Part__Feature003" name="effect_Part__Feature003">
      <profile_COMMON>
        <technique sid="common">
          <phong>
            <emission>
              <color>0.0 0.0 0.0 1.0</color>
            </emission>
            <ambient>
              <color>0.0 0.0 0.0 1.0</color>
            </ambient>
            <diffuse>
              <color>0.6274510025978088 0.6274510025978088 0.6274510025978088 1.0</color>
            </diffuse>
            <specular>
              <color>1 1 1 1.0</color>
            </specular>
            <shininess>
              <float>0.0</float>
            </shininess>
            <reflective>
              <color>0.0 0.0 0.0 1.0</color>
            </reflective>
            <reflectivity>
              <float>0.0</float>
            </reflectivity>
            <transparent>
              <color>0.0 0.0 0.0 1.0</color>
            </transparent>
            <transparency>
              <float>1.0</float>
            </transparency>
          </phong>
        </technique>
        <extra>
          <technique profile="GOOGLEEARTH">
            <double_sided>0</double_sided>
          </technique>
        </extra>
      </profile_COMMON>
    </effect>
    <effect id="effect_Part__Feature004" name="effect_Part__Feature004">
      <profile_COMMON>
        <technique sid="common">
          <phong>
            <emission>
              <color>0.0 0.0 0.0 1.0</color>
            </emission>
            <ambient>
              <color>0.0 0.0 0.0 1.0</color>
            </ambient>
            <diffuse>
              <color>0.6274510025978088 0.6274510025978088 0.6274510025978088 1.0</color>
            </diffuse>
            <specular>
              <color>1 1 1 1.0</color>
            </specular>
            <shininess>
              <float>0.0</float>
            </shininess>
            <reflective>
              <color>0.0 0.0 0.0 1.0</color>
            </reflective>
            <reflectivity>
              <float>0.0</float>
            </reflectivity>
            <transparent>
              <color>0.0 0.0 0.0 1.0</color>
            </transparent>
            <transparency>
              <float>1.0</float>
            </transparency>
          </phong>
        </technique>
        <extra>
          <technique profile="GOOGLEEARTH">
            <double_sided>0</double_sided>
          </technique>
        </extra>
      </profile_COMMON>
    </effect>
    <effect id="effect_Part__Feature005" name="effect_Part__Feature005">
      <profile_COMMON>
        <technique sid="common">
          <phong>
            <emission>
              <color>0.0 0.0 0.0 1.0</color>
            </emission>
            <ambient>
              <color>0.0 0.0 0.0 1.0</color>
            </ambient>
            <diffuse>
              <color>0.6274510025978088 0.6274510025978088 0.6274510025978088 1.0</color>
            </diffuse>
            <specular>
              <color>1 1 1 1.0</color>
            </specular>
            <shininess>
              <float>0.0</float>
            </shininess>
            <reflective>
              <color>0.0 0.0 0.0 1.0</color>
            </reflective>
            <reflectivity>
              <float>0.0</float>
            </reflectivity>
            <transparent>
              <color>0.0 0.0 0.0 1.0</color>
            </transparent>
            <transparency>
              <float>1.0</float>
            </transparency>
          </phong>
        </technique>
        <extra>
          <technique profile="GOOGLEEARTH">
            <double_sided>0</double_sided>
          </technique>
        </extra>
      </profile_COMMON>
    </effect>
  </library_effects>
  <library_geometries>
    <geometry id="geometry0" name="Part__Feature">
      <mesh>
        <source id="cubeverts-array0">
          <float_array count="36" id="cubeverts-array0-array">-1 -1 4 -1 0 0 -1 -1 0 -1 0 4 0 0 0 0 0 4 0 -5 0 0 -5 4 -5 -5 0 -5 -5 4 -5 -1 0 -5 -1 4</float_array>
          <technique_common>
            <accessor count="12" source="#cubeverts-array0-array" stride="3">
              <param type="float" name="X"/>
              <param type="float" name="Y"/>
              <param type="float" name="Z"/>
            </accessor>
          </technique_common>
        </source>
        <source id="cubenormals-array0">
          <float_array count="60" id="cubenormals-array0-array">-1 0 0 -1 0 0 0 1 0 -0 1 0 1 0 0 1 0 0 0 -1 -0 -0 -1 0 -1 0 0 -1 0 0 0 1 0 -0 1 0 0 0 1 0 0 1 0 0 1 0 0 1 0 0 -1 0 0 -1 0 0 -1 0 0 -1</float_array>
          <technique_common>
            <accessor count="20" source="#cubenormals-array0-array" stride="3">
              <param type="float" name="X"/>
              <param type="float" name="Y"/>
              <param type="float" name="Z"/>
            </accessor>
          </technique_common>
        </source>
        <vertices id="cubeverts-array0-vertices">
          <input semantic="POSITION" source="#cubeverts-array0"/>
        </vertices>
        <triangles count="20" material="ref_Part__Feature">
          <input offset="0" semantic="VERTEX" source="#cubeverts-array0-vertices"/>
          <input offset="1" semantic="NORMAL" source="#cubenormals-array0"/>
          <p>0 0 1 0 2 0 0 1 3 1 1 1 3 2 4 2 1 2 3 3 5 3 4 3 5 4 6 4 4 4 5 5 7 5 6 5 7 6 8 6 6 6 7 7 9 7 8 7 9 8 10 8 8 8 9 9 11 9 10 9 11 10 2 10 10 10 11 11 0 11 2 11 0 12 11 12 9 12 0 13 9 13 7 13 5 14 3 14 0 14 5 15 0 15 7 15 10 16 2 16 8 16 8 17 2 17 6 17 1 18 4 18 2 18 2 19 4 19 6 19</p>
        </triangles>
      </mesh>
    </geometry>
    <geometry id="geometry1" name="Part__Feature001">
      <mesh>
        <source id="cubeverts-array1">
          <float_array count="48" id="cubeverts-array1-array">10 6 4 10 10 0 10 6 0 10 10 4 11 10 0 11 10 4 11 -10 0 11 -10 4 10 -10 0 10 -10 4 10 5 0 10 5 4 2 5 0 2 5 4 2 6 0 2 6 4</float_array>
          <technique_common>
            <accessor count="16" source="#cubeverts-array1-array" stride="3">
              <param type="float" name="X"/>
              <param type="float" name="Y"/>
              <param type="float" name="Z"/>
            </accessor>
          </technique_common>
        </source>
        <source id="cubenormals-array1">
          <float_array count="84" id="cubenormals-array1-array">-1 0 0 -1 0 0 0 1 0 -0 1 0 1 0 0 1 0 0 0 -1 -0 -0 -1 0 -1 0 0 -1 0 0 0 -1 -0 -0 -1 0 -1 0 0 -1 0 0 0 1 0 -0 1 0 0 0 1 0 0 1 0 0 1 0 0 1 0 0 1 0 -0 1 0 0 -1 0 0 -1 0 0 -1 0 0 -1 0 0 -1 0 -0 -1</float_array>
          <technique_common>
            <accessor count="28" source="#cubenormals-array1-array" stride="3">
              <param type="float" name="X"/>
              <param type="float" name="Y"/>
              <param type="float" name="Z"/>
            </accessor>
          </technique_common>
        </source>
        <vertices id="cubeverts-array1-vertices">
          <input semantic="POSITION" source="#cubeverts-array1"/>
        </vertices>
        <triangles count="28" material="ref_Part__Feature001">
          <input offset="0" semantic="VERTEX" source="#cubeverts-array1-vertices"/>
          <input offset="1" semantic="NORMAL" source="#cubenormals-array1"/>
          <p>0 0 1 0 2 0 0 1 3 1 1 1 3 2 4 2 1 2 3 3 5 3 4 3 5 4 6 4 4 4 5 5 7 5 6 5 7 6 8 6 6 6 7 7 9 7 8 7 9 8 10 8 8 8 9 9 11 9 10 9 11 10 12 10 10 10 11 11 13 11 12 11 13 12 14 12 12 12 13 13 15 13 14 13 15 14 2 14 14 14 15 15 0 15 2 15 11 16 9 16 7 16 0 17 15 17 13 17 0 18 13 18 11 18 5 19 3 19 0 19 5 20 0 20 11 20 7 21 5 21 11 21 8 22 10 22 6 22 14 23 2 23 12 23 12 24 2 24 10 24 1 25 4 25 2 25 2 26 4 26 10 26 4 27 6 27 10 27</p>
        </triangles>
      </mesh>
    </geometry>
    <geometry id="geometry2" name="Part__Feature002">
      <mesh>
        <source id="cubeverts-array2">
          <float_array count="84" id="cubeverts-array2-array">-10 -10 0 -8 -10 0 -10 -11 0 -11 -10 0 -10 -1 0 -8 -1 0 5 -10 0 10 -11 0 6 -10 0 10 -10 0 -11 10 0 -10 10 0 5 0 0 6 0 0 -8 -10 4 -10 -10 4 -10 -11 4 -10 -1 4 -11 -10 4 -8 -1 4 5 -10 4 10 -11 4 6 -10 4 -10 10 4 -11 10 4 10 -10 4 6 0 4 5 0 4</float_array>
          <technique_common>
            <accessor count="28" source="#cubeverts-array2-array" stride="3">
              <param type="float" name="X"/>
              <param type="float" name="Y"/>
              <param type="float" name="Z"/>
            </accessor>
          </technique_common>
        </source>
        <source id="cubenormals-array2">
          <float_array count="156" id="cubenormals-array2-array">0 0 -1 0 0 -1 0 0 -1 0 0 -1 0 -0 -1 0 -0 -1 -0 -0 -1 0 0 -1 0 0 -1 0 0 -1 0 0 -1 0 0 -1 0 0 1 0 0 1 0 0 1 0 0 1 0 0 1 0 0 1 0 0 1 0 0 1 0 0 1 0 0 1 0 0 1 0 0 1 1 0 0 1 0 0 0 1 0 -0 1 0 1 0 0 1 0 0 0 1 0 -0 1 0 -1 0 0 -1 0 0 0 -1 -0 -0 -1 0 -1 0 0 -1 0 0 0 -1 -0 -0 -1 0 1 0 0 1 0 0 0 1 0 -0 1 0 1 0 0 1 0 0 0 1 0 -0 1 0 -1 0 0 -1 0 0 0 1 0 -0 1 0</float_array>
          <technique_common>
            <accessor count="52" source="#cubenormals-array2-array" stride="3">
              <param type="float" name="X"/>
              <param type="float" name="Y"/>
              <param type="float" name="Z"/>
            </accessor>
          </technique_common>
        </source>
        <vertices id="cubeverts-array2-vertices">
          <input semantic="POSITION" source="#cubeverts-array2"/>
        </vertices>
        <triangles count="52" material="ref_Part__Feature002">
          <input offset="0" semantic="VERTEX" source="#cubeverts-array2-vertices"/>
          <input offset="1" semantic="NORMAL" source="#cubenormals-array2"/>
          <p>0 0 1 0 2 0 3 1 4 1 0 1 0 2 5 2 1 2 4 3 5 3 0 3 1 4 6 4 2 4 6 5 7 5 2 5 8 6 7 6 6 6 8 7 9 7 7 7 10 8 11 8 4 8 12 9 13 9 6 9 6 10 13 10 8 10 3 11 10 11 4 11 14 12 15 12 16 12 17 13 18 13 15 13 19 14 15 14 14 14 19 15 17 15 15 15 20 16 14 16 16 16 21 17 20 17 16 17 21 18 22 18 20 18 23 19 24 19 17 19 25 20 22 20 21 20 26 21 27 21 20 21 26 22 20 22 22 22 24 23 18 23 17 23 19 24 1 24 5 24 19 25 14 25 1 25 17 26 5 26 4 26 17 27 19 27 5 27 11 28 17 28 4 28 23 29 17 29 11 29 24 30 11 30 10 30 24 31 23 31 11 31 18 32 10 32 3 32 18 33 24 33 10 33 15 34 3 34 0 34 15 35 18 35 3 35 16 36 0 36 2 36 16 37 15 37 0 37 21 38 2 38 7 38 21 39 16 39 2 39 25 40 7 40 9 40 25 41 21 41 7 41 22 42 9 42 8 42 22 43 25 43 9 43 26 44 8 44 13 44 26 45 22 45 8 45 27 46 13 46 12 46 27 47 26 47 13 47 20 48 12 48 6 48 20 49 27 49 12 49 14 50 6 50 1 50 14 51 20 51 6 51</p>
        </triangles>
      </mesh>
    </geometry>
    <geometry id="geometry3" name="Part__Feature003">
      <mesh>
        <source id="cubeverts-array3">
          <float_array count="24" id="cubeverts-array3-array">1.171776 5.41966 4 2 5 0 1.171776 5.41966 0 2 5 4 -0.4340273 0.1963023 0 -0.4340273 0.1963023 4 -1.262251 0.6159622 0 -1.262251 0.6159622 4</float_array>
          <technique_common>
            <accessor count="8" source="#cubeverts-array3-array" stride="3">
              <param type="float" name="X"/>
              <param type="float" name="Y"/>
              <param type="float" name="Z"/>
            </accessor>
          </technique_common>
        </source>
        <source id="cubenormals-array3">
          <float_array count="36" id="cubenormals-array3-array">0.4519873 0.8920243 0 0.4519873 0.8920243 0 0.8920243 -0.4519875 0 0.8920243 -0.4519875 0 -0.4519876 -0.8920243 -0 -0.4519876 -0.8920243 0 -0.8920243 0.4519875 0 -0.8920243 0.4519875 0 0 0 1 0 0 1 0 0 -1 0 -0 -1</float_array>
          <technique_common>
            <accessor count="12" source="#cubenormals-array3-array" stride="3">
              <param type="float" name="X"/>
              <param type="float" name="Y"/>
              <param type="float" name="Z"/>
            </accessor>
          </technique_common>
        </source>
        <vertices id="cubeverts-array3-vertices">
          <input semantic="POSITION" source="#cubeverts-array3"/>
        </vertices>
        <triangles count="12" material="ref_Part__Feature003">
          <input offset="0" semantic="VERTEX" source="#cubeverts-array3-vertices"/>
          <input offset="1" semantic="NORMAL" source="#cubenormals-array3"/>
          <p>0 0 1 0 2 0 0 1 3 1 1 1 3 2 4 2 1 2 3 3 5 3 4 3 5 4 6 4 4 4 5 5 7 5 6 5 7 6 2 6 6 6 7 7 0 7 2 7 3 8 0 8 7 8 3 9 7 9 5 9 6 10 1 10 4 10 2 11 1 11 6 11</p>
        </triangles>
      </mesh>
    </geometry>
    <geometry id="geometry4" name="Part__Feature004">
      <mesh>
        <source id="cubeverts-array4">
          <float_array count="24" id="cubeverts-array4-array">-10 10 0 10 11 0 10 10 0 -10 11 0 10 11 4 -10 11 4 -10 10 4 10 10 4</float_array>
          <technique_common>
            <accessor count="8" source="#cubeverts-array4-array" stride="3">
              <param type="float" name="X"/>
              <param type="float" name="Y"/>
              <param type="float" name="Z"/>
            </accessor>
          </technique_common>
        </source>
        <source id="cubenormals-array4">
          <float_array count="36" id="cubenormals-array4-array">0 0 -1 0 0 -1 0 0 1 0 0 1 -1 0 0 -1 0 0 0 -1 -0 -0 -1 0 1 0 0 1 0 0 0 1 0 -0 1 0</float_array>
          <technique_common>
            <accessor count="12" source="#cubenormals-array4-array" stride="3">
              <param type="float" name="X"/>
              <param type="float" name="Y"/>
              <param type="float" name="Z"/>
            </accessor>
          </technique_common>
        </source>
        <vertices id="cubeverts-array4-vertices">
          <input semantic="POSITION" source="#cubeverts-array4"/>
        </vertices>
        <triangles count="12" material="ref_Part__Feature004">
          <input offset="0" semantic="VERTEX" source="#cubeverts-array4-vertices"/>
          <input offset="1" semantic="NORMAL" source="#cubenormals-array4"/>
          <p>0 0 1 0 2 0 3 1 1 1 0 1 4 2 5 2 6 2 4 3 6 3 7 3 6 4 3 4 0 4 6 5 5 5 3 5 7 6 0 6 2 6 7 7 6 7 0 7 4 8 2 8 1 8 4 9 7 9 2 9 5 10 1 10 3 10 5 11 4 11 1 11</p>
        </triangles>
      </mesh>
    </geometry>
    <geometry id="geometry5" name="Part__Feature005">
      <mesh>
        <source id="cubeverts-array5">
          <float_array count="36" id="cubeverts-array5-array">-7.026006 4.891297 4 -5.70197 7.504361 0 -7.026006 4.891297 0 -5.70197 7.504361 4 -2.776972 7.664245 0 -2.776972 7.664245 4 -1.176011 5.211064 0 -1.176011 5.211064 4 -2.500047 2.598 0 -2.500047 2.598 4 -5.425044 2.438117 0 -5.425044 2.438117 4</float_array>
          <technique_common>
            <accessor count="12" source="#cubeverts-array5-array" stride="3">
              <param type="float" name="X"/>
              <param type="float" name="Y"/>
              <param type="float" name="Z"/>
            </accessor>
          </technique_common>
        </source>
        <source id="cubenormals-array5">
          <float_array count="60" id="cubenormals-array5-array">-0.8920243 0.4519875 0 -0.8920243 0.4519875 0 -0.05457953 0.9985094 0 -0.05457953 0.9985094 0 0.8374448 0.5465219 0 0.8374448 0.5465219 0 0.8920243 -0.4519875 0 0.8920243 -0.4519875 0 0.05457945 -0.9985094 0 0.05457945 -0.9985094 0 -0.8374447 -0.546522 -0 -0.8374447 -0.546522 -0 0 0 1 0 0 1 0 0 1 0 0 1 0 0 -1 0 -0 -1 0 0 -1 0 0 -1</float_array>
          <technique_common>
            <accessor count="20" source="#cubenormals-array5-array" stride="3">
              <param type="float" name="X"/>
              <param type="float" name="Y"/>
              <param type="float" name="Z"/>
            </accessor>
          </technique_common>
        </source>
        <vertices id="cubeverts-array5-vertices">
          <input semantic="POSITION" source="#cubeverts-array5"/>
        </vertices>
        <triangles count="20" material="ref_Part__Feature005">
          <input offset="0" semantic="VERTEX" source="#cubeverts-array5-vertices"/>
          <input offset="1" semantic="NORMAL" source="#cubenormals-array5"/>
          <p>0 0 1 0 2 0 0 1 3 1 1 1 3 2 4 2 1 2 3 3 5 3 4 3 5 4 6 4 4 4 5 5 7 5 6 5 7 6 8 6 6 6 7 7 9 7 8 7 9 8 10 8 8 8 9 9 11 9 10 9 0 10 2 10 10 10 11 11 0 11 10 11 9 12 0 12 11 12 7 13 3 13 0 13 7 14 0 14 9 14 5 15 3 15 7 15 10 16 6 16 8 16 1 17 6 17 2 17 2 18 6 18 10 18 1 19 4 19 6 19</p>
        </triangles>
      </mesh>
    </geometry>
  </library_geometries>
  <library_materials>
    <material id="mat_Part__Feature" name="Part__Feature">
      <instance_effect url="#effect_Part__Feature"/>
    </material>
    <material id="mat_Part__Feature001" name="Part__Feature001">
      <instance_effect url="#effect_Part__Feature001"/>
    </material>
    <material id="mat_Part__Feature002" name="Part__Feature002">
      <instance_effect url="#effect_Part__Feature002"/>
    </material>
    <material id="mat_Part__Feature003" name="Part__Feature003">
      <instance_effect url="#effect_Part__Feature003"/>
    </material>
    <material id="mat_Part__Feature004" name="Part__Feature004">
      <instance_effect url="#effect_Part__Feature004"/>
    </material>
    <material id="mat_Part__Feature005" name="Part__Feature005">
      <instance_effect url="#effect_Part__Feature005"/>
    </material>
  </library_materials>
  <library_visual_scenes>
    <visual_scene id="myscene">
      <node id="node0" name="node0">
        <instance_geometry url="#geometry0">
          <bind_material>
            <technique_common>
              <instance_material symbol="ref_Part__Feature" target="#mat_Part__Feature"/>
            </technique_common>
          </bind_material>
        </instance_geometry>
      </node>
      <node id="node1" name="node1">
        <instance_geometry url="#geometry1">
          <bind_material>
            <technique_common>
              <instance_material symbol="ref_Part__Feature001" target="#mat_Part__Feature001"/>
            </technique_common>
          </bind_material>
        </instance_geometry>
      </node>
      <node id="node2" name="node2">
        <instance_geometry url="#geometry2">
          <bind_material>
            <technique_common>
              <instance_material symbol="ref_Part__Feature002" target="#mat_Part__Feature002"/>
            </technique_common>
          </bind_material>
        </instance_geometry>
      </node>
      <node id="node3" name="node3">
        <instance_geometry url="#geometry3">
          <bind_material>
            <technique_common>
              <instance_material symbol="ref_Part__Feature003" target="#mat_Part__Feature003"/>
            </technique_common>
          </bind_material>
        </instance_geometry>
      </node>
      <node id="node4" name="node4">
        <instance_geometry url="#geometry4">
          <bind_material>
            <technique_common>
              <instance_material symbol="ref_Part__Feature004" target="#mat_Part__Feature004"/>
            </technique_common>
          </bind_material>
        </instance_geometry>
      </node>
      <node id="node5" name="node5">
        <instance_geometry url="#geometry5">
          <bind_material>
            <technique_common>
              <instance_material symbol="ref_Part__Feature005" target="#mat_Part__Feature005"/>
            </technique_common>
          </bind_material>
        </instance_geometry>
      </node>
    </visual_scene>
  </library_visual_scenes>
  <scene>
    <instance_visual_scene url="#myscene"/>
  </scene>
</COLLADA>
