<COLLADA xmlns="http://www.collada.org/2005/11/COLLADASchema" version="1.4.1">
  <asset>
    <contributor/>
    <created>2025-09-21T04:42:32.469037</created>
    <modified>2025-09-21T04:42:32.469037</modified>
    <unit name="meter" meter="1.0"/>
    <up_axis>Z_UP</up_axis>
  </asset>
  <library_effects>
    <effect id="effect_Mesh" name="effect_Mesh">
      <profile_COMMON>
        <technique sid="common">
          <phong>
            <emission>
              <color>0.0 0.0 0.0 1.0</color>
            </emission>
            <ambient>
              <color>0.0 0.0 0.0 1.0</color>
            </ambient>
            <diffuse>
              <color>0.6784313917160034 0.7098039388656616 0.7411764860153198 1.0</color>
            </diffuse>
            <specular>
              <color>1 1 1 1.0</color>
            </specular>
            <shininess>
              <float>0.0</float>
            </shininess>
            <reflective>
              <color>0.0 0.0 0.0 1.0</color>
            </reflective>
            <reflectivity>
              <float>0.0</float>
            </reflectivity>
            <transparent>
              <color>0.0 0.0 0.0 1.0</color>
            </transparent>
            <transparency>
              <float>1.0</float>
            </transparency>
          </phong>
        </technique>
        <extra>
          <technique profile="GOOGLEEARTH">
            <double_sided>0</double_sided>
          </technique>
        </extra>
      </profile_COMMON>
    </effect>
  </library_effects>
  <library_geometries>
    <geometry id="geometry0" name="Mesh">
      <mesh>
        <source id="cubeverts-array0">
          <float_array count="162" id="cubeverts-array0-array">13.83654 -4.634052 4 10.49602 1.183245 0 13.83654 -4.634052 0 10.49602 1.183245 4 11.65948 1.851348 4 11.65948 1.851348 0 15 -3.965948 0 15 -3.965948 4 -3 -6 0 -2 2 0 -2 -2 0 3 -2 0 -2 3 0 -3 6 0 -2 5 0 3 3 0 3 2 0 11.44543 -5 0 8 1 0 7 2 0 16 -6 0 15 -5 0 10.2552 1.934191 0 10.2552 5 0 12 1.934191 0 12 5 0 16 6 0 15 5 0 -2 2 4 -3 -6 4 -2 -2 4 3 -2 4 -3 6 4 -2 3 4 -2 5 4 3 3 4 3 2 4 11.44543 -5 4 8 1 4 7 2 4 16 -6 4 15 -5 4 10.2552 5 4 10.2552 1.934191 4 12 1.934191 4 12 5 4 16 6 4 15 5 4 3.324404 1.675596 4 3.324404 1.675596 0 6 5 0 6 5 4 6.324404 4.675596 0 6.324404 4.675596 4</float_array>
          <technique_common>
            <accessor count="54" source="#cubeverts-array0-array" stride="3">
              <param type="float" name="X"/>
              <param type="float" name="Y"/>
              <param type="float" name="Z"/>
            </accessor>
          </technique_common>
        </source>
        <source id="cubenormals-array0">
          <float_array count="324" id="cubenormals-array0-array">-0.8671914 -0.4979751 -0 -0.8671914 -0.4979751 0 -0.4979751 0.8671913 0 -0.4979751 0.8671913 0 0.8671914 0.4979751 0 0.8671914 0.4979751 0 0.4979751 -0.8671913 0 0.4979751 -0.8671913 0 0 0 1 0 0 1 0 0 -1 0 0 -1 0 0 -1 0 -0 -1 0 0 -1 0 0 -1 0 0 -1 0 0 -1 0 0 -1 0 -0 -1 0 0 -1 0 0 -1 0 -0 -1 0 0 -1 0 0 -1 0 0 -1 0 0 -1 0 0 -1 0 0 -1 0 0 -1 0 0 -1 0 0 -1 0 0 -1 0 0 1 0 0 1 0 0 1 0 0 1 0 0 1 0 0 1 0 0 1 0 0 1 0 0 1 0 0 1 0 0 1 0 0 1 0 0 1 0 0 1 0 0 1 0 0 1 0 0 1 0 0 1 0 0 1 0 0 1 0 -0 1 0 -1 -0 -0 -1 0 1 0 0 1 0 0 0 1 0 -0 1 0 -1 0 0 -1 0 0 0.8671914 0.497975 0 0.8671914 0.497975 0 0.7071068 0.7071068 0 0.7071068 0.7071068 0 -0.7071068 0.7071068 0 -0.7071068 0.7071068 0 0 1 0 -0 1 0 1 0 0 1 0 0 0 -1 -0 -0 -1 0 1 0 0 1 0 0 0 1 0 -0 1 0 1 0 0 1 0 0 0 -1 0 -0 -1 -0 -1 0 -0 -1 0 0 0 -1 -0 -0 -1 0 1 0 0 1 0 0 0 -1 -0 -0 -1 0 -1 0 0 -1 0 0 0 1 0 -0 1 0 -1 0 0 -1 0 0 -0.7071068 -0.7071068 -0 -0.7071068 -0.7071068 0 -0.7071068 0.7071068 0 -0.7071068 0.7071068 0 0.7071068 0.7071068 0 0.7071068 0.7071068 0 0.7071068 -0.7071069 0 0.7071068 -0.7071069 0 0 0 1 0 0 1 0 -0 -1 0 0 -1</float_array>
          <technique_common>
            <accessor count="108" source="#cubenormals-array0-array" stride="3">
              <param type="float" name="X"/>
              <param type="float" name="Y"/>
              <param type="float" name="Z"/>
            </accessor>
          </technique_common>
        </source>
        <vertices id="cubeverts-array0-vertices">
          <input semantic="POSITION" source="#cubeverts-array0"/>
        </vertices>
        <triangles count="108" material="ref_Mesh">
          <input offset="0" semantic="VERTEX" source="#cubeverts-array0-vertices"/>
          <input offset="1" semantic="NORMAL" source="#cubenormals-array0"/>
          <p>0 0 1 0 2 0 0 1 3 1 1 1 4 2 5 2 1 2 3 3 4 3 1 3 4 4 6 4 5 4 4 5 7 5 6 5 0 6 2 6 6 6 7 7 0 7 6 7 3 8 0 8 7 8 4 9 3 9 7 9 1 10 5 10 2 10 2 11 5 11 6 11 8 12 9 12 10 12 10 13 11 13 8 13 12 14 13 14 14 14 8 15 13 15 9 15 9 16 13 16 12 16 9 17 15 17 16 17 12 18 15 18 9 18 11 19 17 19 8 19 11 20 18 20 17 20 11 21 19 21 18 21 17 22 20 22 8 22 17 23 21 23 20 23 21 24 6 24 20 24 22 25 23 25 24 25 23 26 25 26 24 26 25 27 26 27 27 27 27 28 26 28 6 28 6 29 26 29 20 29 13 30 26 30 23 30 23 31 26 31 25 31 23 32 14 32 13 32 28 33 29 33 30 33 31 34 30 34 29 34 32 35 29 35 28 35 32 36 28 36 33 36 34 37 32 37 33 37 35 38 28 38 36 38 35 39 33 39 28 39 37 40 31 40 29 40 38 41 31 41 37 41 39 42 31 42 38 42 40 43 37 43 29 43 41 44 37 44 40 44 7 45 41 45 40 45 42 46 43 46 44 46 45 47 42 47 44 47 46 48 45 48 47 48 46 49 47 49 7 49 46 50 7 50 40 50 46 51 32 51 42 51 46 52 42 52 45 52 34 53 42 53 32 53 40 54 8 54 20 54 40 55 29 55 8 55 46 56 20 56 26 56 46 57 40 57 20 57 32 58 26 58 13 58 32 59 46 59 26 59 29 60 13 60 8 60 29 61 32 61 13 61 18 62 37 62 17 62 38 63 37 63 18 63 39 64 18 64 19 64 39 65 38 65 18 65 31 66 19 66 11 66 31 67 39 67 19 67 30 68 11 68 10 68 30 69 31 69 11 69 28 70 10 70 9 70 28 71 30 71 10 71 36 72 9 72 16 72 36 73 28 73 9 73 35 74 16 74 15 74 35 75 36 75 16 75 33 76 15 76 12 76 33 77 35 77 15 77 34 78 12 78 14 78 34 79 33 79 12 79 23 80 34 80 14 80 42 81 34 81 23 81 42 82 23 82 22 82 43 83 42 83 22 83 44 84 22 84 24 84 44 85 43 85 22 85 44 86 24 86 25 86 45 87 44 87 25 87 47 88 25 88 27 88 47 89 45 89 25 89 7 90 47 90 27 90 7 91 27 91 6 91 41 92 21 92 17 92 37 93 41 93 17 93 41 94 7 94 6 94 41 95 6 95 21 95 48 96 16 96 49 96 48 97 36 97 16 97 36 98 50 98 16 98 36 99 51 99 50 99 51 100 52 100 50 100 51 101 53 101 52 101 53 102 49 102 52 102 53 103 48 103 49 103 53 104 36 104 48 104 51 105 36 105 53 105 50 106 52 106 16 106 16 107 52 107 49 107</p>
        </triangles>
      </mesh>
    </geometry>
  </library_geometries>
  <library_materials>
    <material id="mat_Mesh" name="Mesh">
      <instance_effect url="#effect_Mesh"/>
    </material>
  </library_materials>
  <library_visual_scenes>
    <visual_scene id="myscene">
      <node id="node0" name="node0">
        <instance_geometry url="#geometry0">
          <bind_material>
            <technique_common>
              <instance_material symbol="ref_Mesh" target="#mat_Mesh"/>
            </technique_common>
          </bind_material>
        </instance_geometry>
      </node>
    </visual_scene>
  </library_visual_scenes>
  <scene>
    <instance_visual_scene url="#myscene"/>
  </scene>
</COLLADA>
