<COLLADA xmlns="http://www.collada.org/2005/11/COLLADASchema" version="1.4.1">
  <asset>
    <contributor/>
    <created>2025-09-26T04:58:55.345655</created>
    <modified>2025-09-26T04:58:55.345655</modified>
    <unit name="meter" meter="1.0"/>
    <up_axis>Z_UP</up_axis>
  </asset>
  <library_effects>
    <effect id="effect_Mesh" name="effect_Mesh">
      <profile_COMMON>
        <technique sid="common">
          <phong>
            <emission>
              <color>0.0 0.0 0.0 1.0</color>
            </emission>
            <ambient>
              <color>0.0 0.0 0.0 1.0</color>
            </ambient>
            <diffuse>
              <color>0.6784313917160034 0.7098039388656616 0.7411764860153198 1.0</color>
            </diffuse>
            <specular>
              <color>1 1 1 1.0</color>
            </specular>
            <shininess>
              <float>0.0</float>
            </shininess>
            <reflective>
              <color>0.0 0.0 0.0 1.0</color>
            </reflective>
            <reflectivity>
              <float>0.0</float>
            </reflectivity>
            <transparent>
              <color>0.0 0.0 0.0 1.0</color>
            </transparent>
            <transparency>
              <float>1.0</float>
            </transparency>
          </phong>
        </technique>
        <extra>
          <technique profile="GOOGLEEARTH">
            <double_sided>0</double_sided>
          </technique>
        </extra>
      </profile_COMMON>
    </effect>
  </library_effects>
  <library_geometries>
    <geometry id="geometry0" name="Mesh">
      <mesh>
        <source id="cubeverts-array0">
          <float_array count="156" id="cubeverts-array0-array">6 -6 4 9 -6 0 6 -6 0 9 -6 4 9 0 0 9 0 4 8 1 0 8 1 4 8 10 0 8 10 4 1 10 0 1 10 4 1 4 0 1 4 4 6 4 0 6 4 4 6 -2 0 6 -2 4 2 2 0 2 2 4 -1 2 0 -1 2 4 -1 -2 0 -1 -2 4 2 -2 0 2 -2 4 5 0 4 5 3.644975 0 5 0 0 5 3.644975 4 0 3.644975 0 0 3.644975 4 0 11 4 0 11 0 9 11 0 9 11 4 9 1 0 9 1 4 10 0 0 10 0 4 10 -7 0 10 -7 4 6 -7 0 6 -7 4 2 -3 0 2 -3 4 -2 -3 0 -2 -3 4 -2 3 0 -2 3 4 2 3 0 2 3 4</float_array>
          <technique_common>
            <accessor count="52" source="#cubeverts-array0-array" stride="3">
              <param type="float" name="X"/>
              <param type="float" name="Y"/>
              <param type="float" name="Z"/>
            </accessor>
          </technique_common>
        </source>
        <source id="cubenormals-array0">
          <float_array count="312" id="cubenormals-array0-array">0 1 0 -0 1 0 -1 0 0 -1 0 0 -0.7071068 -0.7071068 -0 -0.7071068 -0.7071068 0 -1 0 0 -1 0 0 0 -1 -0 -0 -1 0 1 0 0 1 0 0 0 1 0 -0 1 0 1 0 0 1 0 0 -0.7071068 -0.7071068 -0 -0.7071068 -0.7071068 0 0 -1 -0 -0 -1 0 1 0 0 1 0 0 0 1 0 -0 1 0 0.7071068 0.7071068 0 0.7071068 0.7071068 0 -1 0 0 -1 0 0 0 -1 -0 -0 -1 0 -1 0 0 -1 0 0 0 1 0 -0 1 0 1 0 0 1 0 0 0.7071068 0.7071068 0 0.7071068 0.7071068 0 1 0 0 1 0 0 0 -1 -0 -0 -1 0 -0.7071068 -0.7071068 -0 -0.7071068 -0.7071068 0 0 -1 -0 -0 -1 0 -1 0 0 -1 0 0 0 1 0 -0 1 0 0.7071068 0.7071068 0 0.7071068 0.7071068 0 0 0 1 0 0 1 0 0 1 0 0 1 0 0 1 0 0 1 0 0 1 0 0 1 0 0 1 0 0 1 0 0 1 0 0 1 0 0 1 0 0 1 0 0 1 0 0 1 0 0 1 0 0 1 0 0 1 0 0 1 0 0 1 0 0 1 0 -0 1 0 0 1 0 0 1 0 0 1 0 -0 -1 0 0 -1 0 0 -1 0 0 -1 0 0 -1 0 0 -1 0 -0 -1 0 0 -1 0 0 -1 0 0 -1 0 0 -1 0 0 -1 0 0 -1 0 0 -1 0 0 -1 0 0 -1 0 0 -1 0 0 -1 0 0 -1 0 0 -1 0 0 -1 0 -0 -1 0 0 -1 0 0 -1 0 0 -1 0 0 -1</float_array>
          <technique_common>
            <accessor count="104" source="#cubenormals-array0-array" stride="3">
              <param type="float" name="X"/>
              <param type="float" name="Y"/>
              <param type="float" name="Z"/>
            </accessor>
          </technique_common>
        </source>
        <vertices id="cubeverts-array0-vertices">
          <input semantic="POSITION" source="#cubeverts-array0"/>
        </vertices>
        <triangles count="104" material="ref_Mesh">
          <input offset="0" semantic="VERTEX" source="#cubeverts-array0-vertices"/>
          <input offset="1" semantic="NORMAL" source="#cubenormals-array0"/>
          <p>0 0 1 0 2 0 0 1 3 1 1 1 3 2 4 2 1 2 3 3 5 3 4 3 5 4 6 4 4 4 5 5 7 5 6 5 7 6 8 6 6 6 7 7 9 7 8 7 9 8 10 8 8 8 9 9 11 9 10 9 11 10 12 10 10 10 11 11 13 11 12 11 13 12 14 12 12 12 13 13 15 13 14 13 15 14 16 14 14 14 15 15 17 15 16 15 17 16 18 16 16 16 17 17 19 17 18 17 19 18 20 18 18 18 19 19 21 19 20 19 21 20 22 20 20 20 21 21 23 21 22 21 23 22 24 22 22 22 23 23 25 23 24 23 25 24 2 24 24 24 25 25 0 25 2 25 26 26 27 26 28 26 26 27 29 27 27 27 29 28 30 28 27 28 29 29 31 29 30 29 30 30 32 30 33 30 31 31 32 31 30 31 32 32 34 32 33 32 32 33 35 33 34 33 35 34 36 34 34 34 35 35 37 35 36 35 37 36 38 36 36 36 37 37 39 37 38 37 39 38 40 38 38 38 39 39 41 39 40 39 41 40 42 40 40 40 41 41 43 41 42 41 43 42 44 42 42 42 43 43 45 43 44 43 45 44 46 44 44 44 45 45 47 45 46 45 47 46 48 46 46 46 47 47 49 47 48 47 49 48 50 48 48 48 49 49 51 49 50 49 51 50 28 50 50 50 51 51 26 51 28 51 45 52 23 52 47 52 0 53 45 53 43 53 25 54 23 54 45 54 49 55 23 55 21 55 49 56 47 56 23 56 3 57 0 57 43 57 41 58 3 58 43 58 39 59 5 59 3 59 39 60 3 60 41 60 37 61 7 61 5 61 37 62 5 62 39 62 11 63 31 63 13 63 35 64 11 64 9 64 35 65 9 65 37 65 35 66 32 66 11 66 26 67 51 67 19 67 51 68 49 68 21 68 51 69 21 69 19 69 32 70 31 70 11 70 31 71 29 71 13 71 0 72 25 72 45 72 19 73 17 73 26 73 17 74 15 74 29 74 17 75 29 75 26 75 15 76 13 76 29 76 9 77 7 77 37 77 22 78 44 78 46 78 44 79 2 79 42 79 22 80 24 80 44 80 22 81 48 81 20 81 46 82 48 82 22 82 2 83 1 83 42 83 1 84 40 84 42 84 6 85 36 85 4 85 4 86 38 86 1 86 1 87 38 87 40 87 36 88 38 88 4 88 30 89 10 89 12 89 10 90 34 90 8 90 8 91 34 91 36 91 33 92 34 92 10 92 48 93 50 93 20 93 20 94 50 94 18 94 30 95 33 95 10 95 27 96 30 96 12 96 50 97 28 97 18 97 16 98 18 98 28 98 14 99 16 99 27 99 27 100 16 100 28 100 12 101 14 101 27 101 6 102 8 102 36 102 24 103 2 103 44 103</p>
        </triangles>
      </mesh>
    </geometry>
  </library_geometries>
  <library_materials>
    <material id="mat_Mesh" name="Mesh">
      <instance_effect url="#effect_Mesh"/>
    </material>
  </library_materials>
  <library_visual_scenes>
    <visual_scene id="myscene">
      <node id="node0" name="node0">
        <instance_geometry url="#geometry0">
          <bind_material>
            <technique_common>
              <instance_material symbol="ref_Mesh" target="#mat_Mesh"/>
            </technique_common>
          </bind_material>
        </instance_geometry>
      </node>
    </visual_scene>
  </library_visual_scenes>
  <scene>
    <instance_visual_scene url="#myscene"/>
  </scene>
</COLLADA>
