<COLLADA xmlns="http://www.collada.org/2005/11/COLLADASchema" version="1.4.1">
  <asset>
    <contributor/>
    <created>2025-12-23T15:36:57.150300</created>
    <modified>2025-12-23T15:36:57.150300</modified>
    <unit name="meter" meter="1.0"/>
    <up_axis>Z_UP</up_axis>
  </asset>
  <library_effects>
    <effect id="effect_Mesh" name="effect_Mesh">
      <profile_COMMON>
        <technique sid="common">
          <phong>
            <emission>
              <color>0.0 0.0 0.0 1.0</color>
            </emission>
            <ambient>
              <color>0.0 0.0 0.0 1.0</color>
            </ambient>
            <diffuse>
              <color>0.6784313917160034 0.7098039388656616 0.7411764860153198 1.0</color>
            </diffuse>
            <specular>
              <color>1 1 1 1.0</color>
            </specular>
            <shininess>
              <float>0.0</float>
            </shininess>
            <reflective>
              <color>0.0 0.0 0.0 1.0</color>
            </reflective>
            <reflectivity>
              <float>0.0</float>
            </reflectivity>
            <transparent>
              <color>0.0 0.0 0.0 1.0</color>
            </transparent>
            <transparency>
              <float>1.0</float>
            </transparency>
          </phong>
        </technique>
        <extra>
          <technique profile="GOOGLEEARTH">
            <double_sided>0</double_sided>
          </technique>
        </extra>
      </profile_COMMON>
    </effect>
  </library_effects>
  <library_geometries>
    <geometry id="geometry0" name="Mesh">
      <mesh>
        <source id="cubeverts-array0">
          <float_array count="288" id="cubeverts-array0-array">-3 -22 2 -3 -25 0 -3 -22 0 -3 -25 2 3 -25 0 3 -25 2 3 -22 0 3 -22 2 4 -26 2 -4 -26 0 4 -26 0 -4 -26 2 -0.4 -22 2 -0.4 -22 0 -3 -20 2 -0.4 -20 0 -3 -20 0 -0.4 -20 2 -4 3 0 -4 3 2 4 3 0 4 3 2 0.4 -22 2 0.4 -22 0 0.4 -20 0 0.4 -20 2 3 -20 0 3 -20 2 3 -18 0 3 -18 2 0.5 -18 0 0.5 -18 2 0.5 -16 0 0.5 -16 2 3 -16 0 3 -16 2 3 -14 0 3 -14 2 0.65 -14 0 0.65 -14 2 0.65 -12 0 0.65 -12 2 3 -12 0 3 -12 2 3 -9 0 3 -9 2 0.8 -9 2 0.8 -9 0 0.8 -7 0 0.8 -7 2 3 -7 2 3 -7 0 3 -4 0 3 -4 2 1 -4 0 1 -4 2 1 -2 0 1 -2 2 3 -2 0 3 -2 2 3 2 0 3 2 2 -3 2 0 -3 2 2 -3 -2 0 -3 -2 2 -1 -2 0 -1 -2 2 -1 -4 0 -1 -4 2 -3 -4 0 -3 -4 2 -3 -7 0 -3 -7 2 -0.8 -7 2 -0.8 -7 0 -0.8 -9 0 -0.8 -9 2 -3 -9 2 -3 -9 0 -3 -12 0 -3 -12 2 -0.65 -12 0 -0.65 -12 2 -0.65 -14 0 -0.65 -14 2 -3 -14 0 -3 -14 2 -3 -16 0 -3 -16 2 -0.5 -16 0 -0.5 -16 2 -0.5 -18 0 -0.5 -18 2 -3 -18 0 -3 -18 2</float_array>
          <technique_common>
            <accessor count="96" source="#cubeverts-array0-array" stride="3">
              <param type="float" name="X"/>
              <param type="float" name="Y"/>
              <param type="float" name="Z"/>
            </accessor>
          </technique_common>
        </source>
        <source id="cubenormals-array0">
          <float_array count="576" id="cubenormals-array0-array">1 0 0 1 0 0 0 1 0 -0 1 0 -1 0 0 -1 0 0 0 -1 -0 -0 -1 0 -0 -1 0 0 -1 -0 0 1 0 -0 1 0 1 0 0 1 0 0 -1 0 0 -1 0 0 0 1 0 -0 1 0 1 0 0 1 0 0 -0 -1 0 0 -1 -0 -1 0 0 -1 0 0 0 1 0 -0 1 0 -1 0 0 -1 0 0 0 -1 -0 -0 -1 0 -1 0 0 -1 0 0 0 1 0 -0 1 0 -1 0 0 -1 0 0 0 -1 -0 -0 -1 0 -1 0 0 -1 0 0 0 1 0 -0 1 0 -1 0 0 -1 0 0 0 -1 0 -0 -1 -0 -1 0 0 -1 0 0 0 1 0 -0 1 0 -1 0 0 -1 0 0 0 -1 -0 -0 -1 0 -1 0 0 -1 0 0 0 1 0 -0 1 0 -1 0 0 -1 0 0 0 -1 -0 -0 -1 0 1 0 0 1 0 0 0 1 0 -0 1 0 1 0 0 1 0 0 0 -1 -0 -0 -1 0 1 0 0 1 0 0 0 1 0 -0 1 0 1 0 0 1 0 0 0 -1 0 -0 -1 -0 1 0 0 1 0 0 0 1 0 -0 1 0 1 0 0 1 0 0 0 -1 -0 -0 -1 0 1 0 0 1 0 0 0 1 0 -0 1 0 1 0 0 1 0 0 0 -1 -0 -0 -1 0 1 0 0 1 0 0 0 0 1 0 0 1 0 0 1 0 0 1 0 0 1 0 0 1 0 0 1 0 0 1 0 0 1 0 0 1 0 0 1 0 0 1 0 0 1 0 0 1 0 0 1 0 0 1 0 0 1 0 0 1 0 0 1 0 0 1 0 0 1 0 0 1 0 0 1 0 0 1 0 0 1 0 0 1 0 0 1 0 0 1 0 0 1 0 0 1 0 0 1 0 0 1 0 -0 1 0 0 1 0 0 1 0 0 1 0 0 1 0 0 1 0 0 1 0 0 1 0 0 1 0 0 1 0 0 1 0 0 1 0 0 1 0 0 1 0 0 1 0 0 1 0 0 -1 0 0 -1 -0 -0 -1 0 -0 -1 0 0 -1 0 0 -1 0 0 -1 0 0 -1 0 0 -1 0 0 -1 0 0 -1 0 0 -1 0 0 -1 0 0 -1 0 0 -1 0 0 -1 0 0 -1 0 0 -1 0 0 -1 0 0 -1 0 0 -1 0 0 -1 0 0 -1 0 0 -1 0 0 -1 0 0 -1 0 0 -1 0 0 -1 0 0 -1 0 0 -1 0 0 -1 0 0 -1 0 0 -1 0 0 -1 0 0 -1 0 0 -1 0 0 -1 0 0 -1 0 0 -1 0 0 -1 0 -0 -1 0 0 -1 0 0 -1 0 0 -1 0 0 -1 0 0 -1 0 0 -1 0 0 -1</float_array>
          <technique_common>
            <accessor count="192" source="#cubenormals-array0-array" stride="3">
              <param type="float" name="X"/>
              <param type="float" name="Y"/>
              <param type="float" name="Z"/>
            </accessor>
          </technique_common>
        </source>
        <vertices id="cubeverts-array0-vertices">
          <input semantic="POSITION" source="#cubeverts-array0"/>
        </vertices>
        <triangles count="192" material="ref_Mesh">
          <input offset="0" semantic="VERTEX" source="#cubeverts-array0-vertices"/>
          <input offset="1" semantic="NORMAL" source="#cubenormals-array0"/>
          <p>0 0 1 0 2 0 0 1 3 1 1 1 3 2 4 2 1 2 3 3 5 3 4 3 5 4 6 4 4 4 5 5 7 5 6 5 8 6 9 6 10 6 8 7 11 7 9 7 12 8 0 8 2 8 12 9 2 9 13 9 14 10 15 10 16 10 14 11 17 11 15 11 17 12 13 12 15 12 17 13 12 13 13 13 11 14 18 14 9 14 11 15 19 15 18 15 19 16 20 16 18 16 19 17 21 17 20 17 21 18 10 18 20 18 21 19 8 19 10 19 7 20 22 20 23 20 7 21 23 21 6 21 22 22 24 22 23 22 22 23 25 23 24 23 25 24 26 24 24 24 25 25 27 25 26 25 27 26 28 26 26 26 27 27 29 27 28 27 29 28 30 28 28 28 29 29 31 29 30 29 31 30 32 30 30 30 31 31 33 31 32 31 33 32 34 32 32 32 33 33 35 33 34 33 35 34 36 34 34 34 35 35 37 35 36 35 37 36 38 36 36 36 37 37 39 37 38 37 39 38 40 38 38 38 39 39 41 39 40 39 41 40 42 40 40 40 41 41 43 41 42 41 43 42 44 42 42 42 43 43 45 43 44 43 44 44 46 44 47 44 45 45 46 45 44 45 46 46 48 46 47 46 46 47 49 47 48 47 48 48 50 48 51 48 49 49 50 49 48 49 50 50 52 50 51 50 50 51 53 51 52 51 53 52 54 52 52 52 53 53 55 53 54 53 55 54 56 54 54 54 55 55 57 55 56 55 57 56 58 56 56 56 57 57 59 57 58 57 59 58 60 58 58 58 59 59 61 59 60 59 61 60 62 60 60 60 61 61 63 61 62 61 63 62 64 62 62 62 63 63 65 63 64 63 65 64 66 64 64 64 65 65 67 65 66 65 67 66 68 66 66 66 67 67 69 67 68 67 69 68 70 68 68 68 69 69 71 69 70 69 71 70 72 70 70 70 71 71 73 71 72 71 72 72 74 72 75 72 73 73 74 73 72 73 74 74 76 74 75 74 74 75 77 75 76 75 76 76 78 76 79 76 77 77 78 77 76 77 78 78 80 78 79 78 78 79 81 79 80 79 81 80 82 80 80 80 81 81 83 81 82 81 83 82 84 82 82 82 83 83 85 83 84 83 85 84 86 84 84 84 85 85 87 85 86 85 87 86 88 86 86 86 87 87 89 87 88 87 89 88 90 88 88 88 89 89 91 89 90 89 91 90 92 90 90 90 91 91 93 91 92 91 93 92 94 92 92 92 93 93 95 93 94 93 95 94 16 94 94 94 95 95 14 95 16 95 0 96 11 96 3 96 14 97 11 97 0 97 5 98 11 98 8 98 5 99 3 99 11 99 17 100 0 100 12 100 17 101 14 101 0 101 7 102 5 102 8 102 27 103 25 103 22 103 27 104 22 104 7 104 27 105 7 105 8 105 91 106 95 106 93 106 91 107 89 107 95 107 35 108 33 108 31 108 35 109 31 109 29 109 83 110 87 110 85 110 83 111 81 111 87 111 77 112 73 112 78 112 43 113 41 113 39 113 43 114 39 114 37 114 74 115 73 115 77 115 45 116 49 116 46 116 50 117 49 117 45 117 67 118 71 118 69 118 67 119 65 119 71 119 19 120 71 120 65 120 19 121 65 121 63 121 59 122 57 122 55 122 59 123 55 123 53 123 21 124 63 124 61 124 21 125 61 125 59 125 21 126 59 126 53 126 21 127 19 127 63 127 8 128 21 128 53 128 8 129 53 129 50 129 8 130 50 130 45 130 8 131 45 131 43 131 8 132 43 132 37 132 8 133 37 133 35 133 8 134 35 134 29 134 8 135 29 135 27 135 19 136 11 136 14 136 19 137 14 137 95 137 19 138 95 138 89 138 19 139 89 139 87 139 19 140 87 140 81 140 19 141 81 141 78 141 19 142 78 142 73 142 19 143 73 143 71 143 9 144 2 144 1 144 9 145 16 145 2 145 4 146 10 146 1 146 1 147 10 147 9 147 2 148 15 148 13 148 16 149 15 149 2 149 4 150 6 150 10 150 24 151 26 151 23 151 23 152 26 152 6 152 6 153 26 153 10 153 94 154 90 154 92 154 88 155 90 155 94 155 32 156 34 156 30 156 30 157 34 157 28 157 86 158 82 158 84 158 80 159 82 159 86 159 72 160 76 160 79 160 40 161 42 161 38 161 38 162 42 162 36 162 72 163 75 163 76 163 48 164 44 164 47 164 48 165 51 165 44 165 70 166 66 166 68 166 64 167 66 167 70 167 70 168 18 168 64 168 18 169 62 169 64 169 56 170 58 170 54 170 54 171 58 171 52 171 62 172 20 172 60 172 60 173 20 173 58 173 18 174 20 174 62 174 58 175 20 175 52 175 9 176 18 176 16 176 16 177 18 177 94 177 94 178 18 178 88 178 88 179 18 179 86 179 86 180 18 180 80 180 80 181 18 181 79 181 79 182 18 182 72 182 72 183 18 183 70 183 20 184 10 184 52 184 52 185 10 185 51 185 51 186 10 186 44 186 44 187 10 187 42 187 42 188 10 188 36 188 36 189 10 189 34 189 34 190 10 190 28 190 28 191 10 191 26 191</p>
        </triangles>
      </mesh>
    </geometry>
  </library_geometries>
  <library_materials>
    <material id="mat_Mesh" name="Mesh">
      <instance_effect url="#effect_Mesh"/>
    </material>
  </library_materials>
  <library_visual_scenes>
    <visual_scene id="myscene">
      <node id="node0" name="node0">
        <instance_geometry url="#geometry0">
          <bind_material>
            <technique_common>
              <instance_material symbol="ref_Mesh" target="#mat_Mesh"/>
            </technique_common>
          </bind_material>
        </instance_geometry>
      </node>
    </visual_scene>
  </library_visual_scenes>
  <scene>
    <instance_visual_scene url="#myscene"/>
  </scene>
</COLLADA>
